<svg xmlns="http://www.w3.org/2000/svg" viewBox="0 0 64 64">
  <defs>
    <linearGradient id="bg" x1="0%" x2="100%" y1="0%" y2="100%">
      <stop offset="0%" stop-color="#0d1728" />
      <stop offset="100%" stop-color="#07111f" />
    </linearGradient>
    <linearGradient id="accent" x1="0%" x2="100%" y1="0%" y2="100%">
      <stop offset="0%" stop-color="#7dd3fc" />
      <stop offset="100%" stop-color="#38bdf8" />
    </linearGradient>
  </defs>
  <rect width="64" height="64" rx="18" fill="url(#bg)" />
  <path
    d="M18 24c0-3.314 2.686-6 6-6h16c3.314 0 6 2.686 6 6v4c0 3.314-2.686 6-6 6H24c-3.314 0-6-2.686-6-6z"
    fill="url(#accent)"
    opacity="0.9"
  />
  <path
    d="M24 40c0-3.314 2.686-6 6-6h10c3.314 0 6 2.686 6 6v2c0 3.314-2.686 6-6 6H30c-3.314 0-6-2.686-6-6z"
    fill="#132238"
    stroke="#7dd3fc"
    stroke-opacity="0.4"
  />
</svg>
